<?xml version="1.0" standalone="no"?>
<!DOCTYPE svg PUBLIC "-//W3C//DTD SVG 20010904//EN"
 "http://www.w3.org/TR/2001/REC-SVG-20010904/DTD/svg10.dtd">
<svg version="1.0" xmlns="http://www.w3.org/2000/svg"
 width="512.000000pt" height="512.000000pt" viewBox="0 0 512.000000 512.000000"
 preserveAspectRatio="xMidYMid meet">

<g transform="translate(0.000000,512.000000) scale(0.100000,-0.100000)"
fill="#000000" stroke="none">
<path d="M1078 4883 c-243 -244 -276 -287 -294 -380 -7 -38 -14 -40 -40 -12
-34 38 -150 118 -222 154 -100 49 -231 85 -337 92 -87 5 -91 4 -118 -20 -33
-32 -37 -83 -7 -115 24 -25 37 -29 139 -37 133 -10 292 -78 398 -170 47 -40
53 -55 24 -55 -10 0 -49 -16 -87 -35 -59 -29 -102 -67 -299 -264 l-229 -231
39 -41 c133 -138 314 -176 488 -104 15 6 17 0 17 -66 0 -159 60 -353 155 -499
l55 -85 -23 -14 c-12 -8 -46 -39 -74 -69 -89 -91 -142 -235 -129 -354 l6 -57
-51 -40 c-85 -67 -136 -142 -166 -244 -16 -54 -19 -193 -5 -242 8 -27 4 -35
-32 -76 -75 -84 -116 -193 -116 -309 0 -64 17 -147 38 -186 8 -16 3 -35 -29
-100 -72 -143 -72 -292 -2 -431 32 -62 118 -153 178 -186 35 -20 42 -31 65
-99 54 -159 149 -254 308 -308 68 -23 79 -30 99 -65 52 -93 174 -186 282 -215
107 -28 255 -7 356 50 l50 29 60 -21 c43 -15 86 -21 150 -22 129 -1 211 29
316 116 42 34 49 37 80 28 101 -29 262 -2 361 62 46 29 148 131 148 148 0 4
38 8 84 8 49 0 108 7 141 17 l58 16 81 -83 c45 -46 113 -107 151 -136 104 -78
272 -157 412 -194 107 -28 133 -31 278 -32 168 -1 251 11 386 55 300 99 571
342 704 633 192 422 118 918 -191 1273 -30 33 -54 64 -54 68 0 3 26 36 58 73
188 219 311 494 357 800 12 80 15 198 15 548 l0 446 -421 -3 -421 -3 -32 60
c-95 176 -170 264 -513 607 l-299 298 -310 -313 c-295 -299 -384 -399 -455
-519 -18 -30 -39 -65 -47 -78 -14 -23 -15 -21 -81 80 -83 129 -212 290 -285
357 -184 167 -428 264 -665 264 l-96 0 0 111 c0 106 -2 116 -32 178 -18 36
-56 91 -85 123 l-53 57 -237 -238z m238 -45 c4 -13 7 -48 7 -78 0 -94 -26
-135 -195 -306 -83 -85 -155 -154 -159 -154 -13 0 -29 62 -29 109 1 82 29 124
198 294 86 86 160 157 164 157 4 0 10 -10 14 -22z m2657 -785 c34 -45 74 -104
90 -132 l27 -50 -57 -11 c-113 -21 -260 -73 -383 -133 -69 -34 -128 -63 -132
-65 -5 -2 -8 107 -8 242 0 276 -5 303 -59 325 -36 16 -85 1 -101 -30 -6 -10
-10 -73 -10 -140 l0 -122 -64 61 c-35 33 -74 64 -87 67 -60 15 -119 -48 -97
-105 5 -14 63 -79 129 -146 l120 -120 -3 -69 -3 -69 -106 -2 c-59 -2 -135 -8
-170 -14 -138 -24 -308 -87 -417 -155 l-44 -27 7 48 c21 145 82 325 156 464
77 142 151 232 409 493 l254 258 244 -243 c134 -134 271 -280 305 -325z
m-2203 406 c94 -24 216 -82 296 -142 122 -90 296 -314 424 -545 l24 -42 -21
-68 c-31 -97 -52 -201 -66 -330 l-12 -113 -135 140 c-74 78 -182 190 -239 250
-57 60 -114 112 -127 115 -32 8 -82 -19 -94 -50 -6 -14 -7 -37 -3 -52 6 -27
170 -200 207 -220 19 -9 18 -11 -6 -53 -36 -61 -58 -142 -58 -211 0 -53 -2
-58 -25 -63 -14 -3 -37 -7 -51 -11 -38 -7 -74 29 -74 74 0 30 -12 47 -92 129
-105 107 -136 127 -179 118 -58 -13 -80 -96 -38 -141 l21 -22 -48 -7 c-121
-15 -219 -56 -287 -121 -37 -35 -38 -35 -88 -25 -27 6 -77 11 -109 11 l-60 0
-45 57 c-85 109 -151 277 -164 416 -6 70 2 229 13 265 3 9 149 160 323 334
l318 317 80 10 c101 12 218 4 315 -20z m-967 -292 l29 -12 -161 -158 c-180
-177 -211 -196 -312 -197 -123 0 -122 4 68 191 117 115 179 169 203 176 48 15
139 15 173 0z m4134 -839 c-4 -437 -5 -449 -68 -644 -53 -165 -173 -373 -292
-506 l-33 -37 -57 37 -56 37 0 135 c1 185 -25 323 -87 472 -13 32 -24 60 -24
63 0 3 72 5 160 5 146 0 162 2 180 20 46 46 31 116 -30 137 -19 7 -80 12 -134
12 l-100 1 187 189 c175 176 187 191 187 225 0 48 -36 86 -81 86 -27 0 -48
-16 -139 -106 l-107 -105 -5 80 c-4 68 -9 85 -28 106 -32 34 -82 34 -115 0
-25 -24 -25 -27 -25 -193 l0 -168 -40 -39 -40 -39 -71 77 c-122 132 -296 249
-457 307 -48 18 -60 26 -51 36 17 20 191 102 286 133 194 65 311 78 741 80
l303 1 -4 -402z m-1587 52 c355 -38 652 -244 814 -567 49 -99 83 -222 96 -349
10 -96 7 -164 -6 -164 -3 0 -44 11 -92 24 -136 39 -229 50 -365 43 -228 -10
-428 -75 -608 -198 l-55 -37 -56 62 c-84 94 -213 156 -325 156 -49 0 -54 2
-69 33 -10 17 -30 49 -47 69 l-30 37 32 43 c98 133 283 217 451 204 41 -3 89
-8 107 -12 29 -5 33 -3 39 20 8 32 24 24 24 -12 0 -49 54 -145 109 -194 74
-67 144 -91 246 -86 121 7 213 61 272 160 82 139 62 306 -50 419 -125 125
-338 132 -465 15 -50 -45 -88 -100 -98 -141 -5 -21 -11 -25 -28 -21 -171 47
-382 23 -523 -60 l-42 -25 -6 28 c-20 100 -48 159 -115 245 l-20 26 82 67
c141 113 331 193 509 214 104 12 112 12 219 1z m-1039 -297 c87 -89 163 -176
174 -198 24 -51 31 -132 15 -180 l-12 -37 -155 153 c-169 169 -187 192 -203
263 -11 50 2 156 19 156 4 0 77 -71 162 -157z m-672 -74 c49 -25 73 -45 108
-93 25 -33 49 -62 53 -64 5 -2 32 9 60 23 28 14 73 29 99 32 l47 5 148 -148
147 -149 -6 -50 c-12 -105 -17 -95 58 -120 37 -13 83 -35 102 -49 32 -25 81
-84 74 -90 -2 -1 -24 -14 -49 -28 -52 -30 -130 -109 -155 -157 -9 -18 -15 -34
-13 -36 15 -13 148 -73 148 -67 0 21 87 105 134 130 44 23 63 27 136 27 76 0
91 -3 140 -30 33 -18 69 -49 92 -79 l37 -50 -37 -40 c-182 -198 -302 -509
-302 -783 0 -162 45 -361 114 -506 26 -55 38 -91 32 -95 -23 -14 -143 -4 -200
16 -59 21 -76 21 -76 -1 0 -30 -61 -136 -98 -169 -62 -56 -98 -71 -186 -76
-75 -4 -79 -4 -72 14 16 42 27 142 21 194 -12 91 -51 182 -114 260 l-20 25
-58 -58 -58 -57 17 -28 c37 -58 60 -116 65 -166 12 -113 -54 -234 -158 -291
-48 -26 -64 -30 -136 -30 -45 0 -84 3 -88 7 -4 4 5 36 19 72 14 35 26 67 26
69 0 6 -130 37 -152 37 -8 0 -20 -17 -27 -37 -30 -84 -110 -161 -190 -183 -20
-5 -66 -10 -102 -10 -160 0 -289 131 -289 294 0 63 20 127 55 172 14 18 25 36
25 41 0 5 -25 33 -56 63 l-56 55 -32 -37 c-50 -57 -85 -135 -98 -221 -7 -42
-15 -77 -19 -77 -3 0 -26 14 -51 30 -79 52 -129 144 -130 239 -1 74 15 129 53
181 l31 42 -58 59 -58 59 -24 -22 c-13 -13 -40 -56 -60 -98 -20 -41 -37 -76
-38 -78 -6 -11 -38 18 -68 61 -48 70 -62 135 -48 217 37 210 276 314 456 200
26 -17 50 -30 54 -30 4 0 32 25 62 55 l54 55 -24 25 c-33 35 -148 91 -217 105
-79 17 -178 7 -258 -25 -36 -15 -69 -24 -73 -21 -12 13 -14 135 -2 173 7 21
23 55 37 76 23 36 26 38 42 23 16 -14 22 -11 76 44 l59 60 -22 22 c-39 42 -65
117 -65 189 0 116 65 219 172 271 70 34 178 32 251 -4 30 -15 63 -33 72 -40
16 -11 25 -6 75 44 l57 57 -23 25 c-58 62 -207 116 -320 116 l-64 0 6 56 c11
107 71 194 170 246 34 18 58 23 127 23 73 0 92 -4 138 -27 30 -16 57 -28 62
-28 5 0 27 26 49 58 67 94 138 131 257 132 60 0 80 -5 133 -31z m2049 -75 c34
-25 72 -98 72 -139 -1 -45 -33 -109 -69 -135 -63 -44 -160 -39 -215 13 -83 79
-66 214 34 269 46 25 138 21 178 -8z m404 -762 c170 -46 320 -128 445 -246
238 -222 358 -565 309 -884 -35 -227 -129 -413 -292 -575 -422 -420 -1126
-381 -1497 83 -191 239 -266 541 -206 833 39 195 123 358 253 495 156 164 313
253 536 303 115 25 339 21 452 -9z"/>
<path d="M1608 4301 c-39 -20 -55 -61 -38 -101 7 -16 56 -72 110 -124 85 -83
104 -96 132 -96 50 1 88 40 88 91 0 28 -202 235 -236 242 -13 2 -39 -3 -56
-12z"/>
<path d="M1249 3951 c-50 -51 -42 -70 77 -192 59 -59 117 -110 131 -114 54
-13 112 47 98 103 -3 14 -45 66 -93 115 -123 126 -160 141 -213 88z"/>
<path d="M905 3608 c-42 -49 -30 -77 78 -187 100 -101 141 -127 181 -112 32
13 56 49 56 85 0 25 -19 49 -108 138 -97 97 -112 108 -144 108 -28 0 -42 -7
-63 -32z"/>
<path d="M1554 2651 c-62 -18 -127 -52 -176 -94 l-28 -23 59 -58 59 -59 47 31
c57 38 132 56 197 49 46 -6 130 -40 170 -69 16 -11 25 -6 75 44 57 57 57 57
38 78 -33 36 -128 87 -197 104 -82 20 -166 19 -244 -3z"/>
<path d="M1273 1633 c-92 -115 -125 -271 -88 -414 17 -63 70 -162 104 -193 22
-20 22 -20 76 34 30 30 55 59 55 66 0 6 -9 19 -20 29 -31 28 -60 118 -60 188
0 64 20 120 61 179 l22 30 -60 59 -59 60 -31 -38z"/>
<path d="M2046 1201 l-57 -58 36 -31 c142 -125 385 -139 547 -32 85 57 86 58
20 123 l-58 58 -27 -21 c-86 -68 -212 -83 -308 -37 -30 15 -63 33 -74 42 -20
14 -24 11 -79 -44z"/>
<path d="M4099 1936 c-247 -66 -336 -374 -160 -555 58 -59 108 -86 187 -100
148 -27 303 57 367 197 32 72 31 199 -4 272 -71 150 -234 228 -390 186z m161
-179 c106 -56 119 -193 27 -274 -119 -104 -308 14 -267 167 30 110 141 160
240 107z"/>
</g>
</svg>
