<?xml version="1.0" standalone="no"?>
<!DOCTYPE svg PUBLIC "-//W3C//DTD SVG 20010904//EN"
 "http://www.w3.org/TR/2001/REC-SVG-20010904/DTD/svg10.dtd">
<svg version="1.0" xmlns="http://www.w3.org/2000/svg"
 width="512.000000pt" height="512.000000pt" viewBox="0 0 512.000000 512.000000"
 preserveAspectRatio="xMidYMid meet">

<g transform="translate(0.000000,512.000000) scale(0.100000,-0.100000)"
fill="#000000" stroke="none">
<path d="M1935 5108 c-42 -24 -44 -36 -45 -236 l0 -193 26 -24 c16 -15 39 -25
55 -25 l29 0 0 -112 0 -111 -249 -491 c-136 -270 -260 -522 -275 -560 -15 -37
-38 -116 -52 -175 l-24 -106 0 -1416 c0 -1589 -6 -1467 76 -1558 26 -29 65
-58 96 -72 l53 -24 935 0 935 0 51 23 c60 27 113 79 146 142 l23 45 3 1429 2
1428 -24 108 c-13 59 -37 138 -52 176 -15 38 -139 290 -275 560 l-249 491 0
111 0 112 29 0 c16 0 39 10 55 25 l26 24 0 193 c-1 202 -3 213 -47 236 -31 17
-1219 16 -1248 0z m1135 -233 l0 -85 -510 0 -510 0 0 85 0 85 510 0 510 0 0
-85z m-110 -379 l0 -134 160 -315 160 -315 -30 -12 c-17 -7 -55 -30 -85 -51
-31 -21 -68 -45 -83 -53 -77 -39 -171 -26 -256 35 -103 74 -158 93 -266 93
-108 0 -163 -19 -266 -93 -85 -61 -179 -74 -256 -35 -15 8 -52 32 -83 53 -30
21 -68 44 -85 51 l-30 12 160 315 160 315 0 134 0 134 400 0 400 0 0 -134z
m-343 -919 c28 -7 73 -30 101 -50 168 -124 331 -128 508 -12 132 86 117 92
206 -92 42 -87 87 -196 100 -243 l23 -85 3 -1415 c2 -1390 2 -1416 -17 -1447
-11 -18 -32 -40 -48 -50 -26 -17 -77 -18 -933 -18 -856 0 -907 1 -933 18 -16
10 -37 32 -48 50 -19 31 -19 57 -17 1447 l3 1415 23 85 c13 47 58 156 100 243
89 184 74 178 206 92 177 -116 340 -112 509 12 42 31 112 60 152 62 6 1 34 -5
62 -12z"/>
<path d="M2374 4456 c-65 -28 -60 -121 6 -145 49 -16 322 -15 364 3 67 28 64
121 -4 145 -48 16 -327 14 -366 -3z"/>
<path d="M1816 3298 c-32 -29 -71 -149 -86 -261 -7 -55 -10 -401 -8 -1045 l3
-964 28 -24 c36 -30 68 -30 104 0 l28 24 5 1024 5 1023 27 80 c34 98 34 105 3
139 -30 33 -74 34 -109 4z"/>
<path d="M1784 812 c-12 -2 -30 -12 -40 -24 -17 -17 -19 -41 -22 -186 -2 -92
-1 -181 3 -199 8 -43 41 -73 79 -73 38 1 62 18 76 54 16 42 13 340 -4 380 -15
35 -52 55 -92 48z"/>
</g>
</svg>
