<?xml version="1.0" standalone="no"?>
<!DOCTYPE svg PUBLIC "-//W3C//DTD SVG 20010904//EN"
 "http://www.w3.org/TR/2001/REC-SVG-20010904/DTD/svg10.dtd">
<svg version="1.0" xmlns="http://www.w3.org/2000/svg"
 width="512.000000pt" height="512.000000pt" viewBox="0 0 512.000000 512.000000"
 preserveAspectRatio="xMidYMid meet">

<g transform="translate(0.000000,512.000000) scale(0.100000,-0.100000)"
fill="#000000" stroke="none">
<path d="M735 5106 c-143 -37 -249 -121 -352 -279 -244 -374 -372 -1227 -323
-2157 21 -396 63 -671 135 -885 209 -621 644 -1046 1178 -1150 104 -21 303
-29 387 -17 l65 9 100 -101 c294 -298 655 -472 1070 -517 165 -18 437 -1 517
32 34 14 62 70 53 108 -3 16 -17 39 -31 52 -29 27 -54 28 -209 10 -197 -24
-432 0 -631 64 -115 38 -290 124 -394 196 -86 59 -240 192 -240 208 0 4 30 20
68 34 37 15 103 47 147 72 434 248 695 730 695 1286 0 43 2 79 3 79 9 0 1744
-914 1755 -924 10 -10 3 -28 -39 -92 -127 -194 -242 -332 -400 -479 -93 -86
-108 -107 -109 -147 0 -34 43 -85 79 -93 43 -9 73 8 170 95 113 101 255 265
363 420 112 162 148 232 148 293 0 97 -45 146 -211 232 -72 37 -89 50 -84 63
178 435 336 1107 401 1702 25 219 25 644 1 795 -58 369 -178 571 -395 665 -52
22 -70 25 -197 24 -123 0 -151 -3 -230 -27 -280 -85 -684 -350 -1060 -695
-133 -122 -423 -414 -531 -536 l-70 -78 -59 103 c-187 331 -450 714 -676 984
-105 124 -300 321 -399 401 -263 212 -503 299 -695 250z m284 -441 c209 -286
504 -855 778 -1500 92 -218 217 -547 252 -664 28 -91 55 -121 111 -121 54 0
100 42 100 92 0 66 -164 506 -338 908 -226 520 -470 996 -660 1283 -37 56 -71
108 -75 115 -14 22 23 -1 95 -58 370 -295 872 -977 1207 -1639 156 -309 213
-470 258 -726 26 -153 24 -447 -5 -582 -57 -263 -161 -463 -332 -633 -288
-287 -707 -396 -1097 -285 -110 32 -286 119 -378 187 -98 73 -228 207 -307
318 -110 155 -221 395 -278 600 -112 410 -132 1359 -41 1974 36 240 104 509
159 629 17 38 17 32 18 -260 1 -312 14 -503 60 -893 55 -469 127 -899 205
-1222 27 -111 35 -131 61 -153 42 -36 91 -34 130 5 37 37 36 51 -15 275 -91
397 -188 1063 -227 1555 -19 235 -24 574 -11 719 7 74 15 139 18 145 4 5 179
-595 390 -1335 280 -979 390 -1350 405 -1366 67 -71 182 -9 165 90 -3 17 -172
615 -375 1327 -204 712 -374 1309 -377 1325 l-7 30 26 -30 c15 -16 53 -66 85
-110z m3105 -279 c-269 -249 -837 -971 -1188 -1509 -42 -64 -78 -117 -81 -117
-2 0 -13 26 -25 58 -12 31 -53 126 -92 210 -71 153 -71 153 -51 175 415 475
824 848 1188 1083 86 55 291 164 309 164 5 0 -22 -29 -60 -64z m596 -6 c170
-238 195 -803 69 -1555 -56 -339 -146 -708 -245 -1003 -56 -168 -80 -226 -92
-220 -24 10 -368 191 -374 197 -4 3 13 51 39 106 126 277 385 964 385 1022 0
45 -24 79 -67 93 -30 10 -41 9 -72 -7 -37 -18 -39 -21 -129 -269 -134 -370
-327 -844 -344 -844 -6 0 -939 487 -948 495 -1 1 -5 24 -8 51 -6 48 -5 51 94
205 279 436 699 1001 988 1329 154 174 434 443 434 415 0 -3 -184 -356 -410
-785 -279 -529 -410 -789 -410 -809 0 -20 11 -42 29 -63 38 -43 98 -46 135 -8
13 14 219 397 457 852 239 455 437 828 441 828 4 0 16 -13 28 -30z"/>
<path d="M1654 1761 c-60 -26 -73 -113 -25 -162 62 -61 161 -19 161 70 0 71
-72 119 -136 92z"/>
<path d="M3860 359 c-65 -26 -81 -110 -31 -160 49 -49 126 -35 156 28 19 40
14 72 -18 108 -25 29 -71 39 -107 24z"/>
</g>
</svg>
